<?xml version="1.0" encoding="utf-8"?>
<!-- Generator: Adobe Illustrator 26.0.1, SVG Export Plug-In . SVG Version: 6.00 Build 0)  -->
<svg version="1.1" id="Слой_1" xmlns="http://www.w3.org/2000/svg" xmlns:xlink="http://www.w3.org/1999/xlink" x="0px" y="0px"
	 viewBox="0 0 677 224" style="enable-background:new 0 0 677 224;" xml:space="preserve">
<style type="text/css">
	.st0{clip-path:url(#SVGID_00000086689827007432582910000009685202773533243041_);}
	.st1{fill-rule:evenodd;clip-rule:evenodd;fill:#2775CA;}
	.st2{fill-rule:evenodd;clip-rule:evenodd;fill:#FFFFFF;}
	.st3{fill:#FFFFFF;}
</style>
<g>
	<defs>
		<rect id="SVGID_1_" width="677" height="223.6"/>
	</defs>
	<clipPath id="SVGID_00000150094202789080979990000004946600016373283208_">
		<use xlink:href="#SVGID_1_"  style="overflow:visible;"/>
	</clipPath>
	<g style="clip-path:url(#SVGID_00000150094202789080979990000004946600016373283208_);">
		<path class="st1" d="M111.8,0c61.7,0,111.8,50,111.8,111.8c0,61.7-50,111.8-111.8,111.8C50,223.6,0,173.5,0,111.8
			C0,50,50,0,111.8,0z"/>
		<path class="st2" d="M137.3,33.1c-2.5-0.8-4.6,0.7-4.6,3.3v6.5c0,1.8,1.3,3.8,3,4.4c26.8,9.8,45.9,35.5,45.9,65.6
			c0,30.1-19.1,55.8-45.9,65.6c-1.8,0.7-3,2.5-3,4.4v6.5c0,2.6,2.1,4.1,4.6,3.3c33.8-10.8,58.3-42.5,58.3-79.9
			C195.6,75.6,171.1,43.9,137.3,33.1z M90.8,36.4c0-2.6-2.1-4.1-4.6-3.3C52.4,43.9,27.9,75.6,27.9,113c0,37.4,24.5,69.1,58.3,79.9
			c2.5,0.8,4.6-0.7,4.6-3.3V183c0-1.8-1.3-3.8-3-4.4c-26.8-9.8-45.9-35.5-45.9-65.6c0-30.1,19.1-55.8,45.9-65.6c1.7-0.6,3-2.6,3-4.4
			V36.4z M115.3,57.1h-7c-1.9,0-3.5,1.6-3.5,3.5v10.8C91,73.3,82,82.6,82,94.4c0,15.3,9.3,21.2,28.8,23.9c13.2,2.2,17,5,17,12.6
			c0,7.5-6.4,12.6-15.4,12.6c-12.2,0-16.2-5.3-17.7-12.2c-0.4-1.6-1.8-2.8-3.4-2.8h-8c-2,0-3.6,1.8-3.2,3.8
			c2,11.6,9.5,20.2,24.7,22.2v11c0,1.9,1.6,3.5,3.5,3.5h7c1.9,0,3.5-1.6,3.5-3.5v-11c14.4-2.3,23.6-12.3,23.6-24.8
			c0-16.3-9.9-21.8-29.1-24.4c-14.2-2.1-16.9-5.4-16.9-12c0-6.3,4.8-10.7,14-10.7c8.4,0,13.2,2.9,15.2,9.7c0.4,1.5,1.8,2.6,3.4,2.6
			h7.3c2,0,3.6-1.9,3.2-3.9c-2.3-10.6-9.5-17-20.7-19V60.6C118.8,58.6,117.2,57.1,115.3,57.1z"/>
		<path class="st3" d="M263.8,129V55.1h19v72.7c0,16,8.8,24.8,23.2,24.8c14.5,0,23.2-8.8,23.2-24.8V55.1h19.2V129
			c0,27.3-18.5,41.9-42.3,41.9C282.3,170.8,263.8,156.3,263.8,129z"/>
		<path class="st3" d="M426.5,87.1c-1.1-7-7-17.4-22.2-17.4c-11.5,0-19.5,7.7-19.5,16.3c0,7.2,4.5,12.6,13.3,14.5l16.3,3.4
			c20,4,30.7,16.6,30.7,32.6c0,17.6-14.2,34.4-40.1,34.4c-28.8,0-42-18.5-43.8-34.8l17.9-5.1c1.1,11.8,9.6,22.7,25.9,22.7
			c13.6,0,20.6-6.9,20.6-15.7c0-7.4-5.4-13.3-15.2-15.3l-16-3.4c-17.3-3.5-28.8-14.9-28.8-31.8c0-19,17.4-34.7,38.5-34.7
			c26.7,0,37.1,16.3,39.6,28.9L426.5,87.1z"/>
		<path class="st3" d="M461,168.4V55.1h40.1c30.8,0,55.1,20.5,55.1,56.9c0,36.3-24.6,56.4-55.3,56.4H461z M500.3,150.9
			c19.7,0,36-12.6,36-38.8c0-26.5-16.1-39.3-35.8-39.3h-20.3v78.1H500.3z"/>
		<path class="st3" d="M568.5,111.9c0-36.9,27.6-59.1,57.1-59.1c28.8,0,45.9,16.9,51,36.8l-18.1,6.1c-3.4-13.7-13.9-24.8-32.9-24.8
			c-18.7,0-37.4,13.6-37.4,41.1c0,26.5,18.2,40.6,37.6,40.6c19,0,29.9-12.1,33.7-24.9l17.6,5.8c-5.1,19.2-22.4,37.6-51.3,37.6
			C595.2,170.8,568.5,148.8,568.5,111.9z"/>
	</g>
</g>
</svg>
